<svg width="96" height="96" viewBox="0 0 96 96" fill="none" xmlns="http://www.w3.org/2000/svg">
  <rect width="96" height="96" rx="28" fill="url(#paint0_linear)"/>
  <path d="M24 30C24 26.6863 26.6863 24 30 24H54L72 42V66C72 69.3137 69.3137 72 66 72H30C26.6863 72 24 69.3137 24 66V30Z" fill="white" fill-opacity="0.96"/>
  <path d="M54 24V38C54 40.2091 55.7909 42 58 42H72" fill="#B7E0FF"/>
  <rect x="34" y="48" width="28" height="4" rx="2" fill="#0D5C63"/>
  <rect x="34" y="56" width="18" height="4" rx="2" fill="#4A7C59"/>
  <circle cx="64" cy="62" r="10" fill="#F2B134"/>
  <path d="M64 57V67" stroke="white" stroke-width="3.2" stroke-linecap="round"/>
  <path d="M59 62H69" stroke="white" stroke-width="3.2" stroke-linecap="round"/>
  <defs>
    <linearGradient id="paint0_linear" x1="10" y1="8" x2="85" y2="88" gradientUnits="userSpaceOnUse">
      <stop stop-color="#0D5C63"/>
      <stop offset="1" stop-color="#4A7C59"/>
    </linearGradient>
  </defs>
</svg>
